<?xml version="1.0" standalone="no"?>
<!DOCTYPE svg PUBLIC "-//W3C//DTD SVG 20010904//EN"
 "http://www.w3.org/TR/2001/REC-SVG-20010904/DTD/svg10.dtd">
<svg version="1.0" xmlns="http://www.w3.org/2000/svg"
 width="128.000000pt" height="128.000000pt" viewBox="0 0 128.000000 128.000000"
 preserveAspectRatio="xMidYMid meet">
<metadata>
Created by potrace 1.14, written by Peter Selinger 2001-2017
</metadata>
<g transform="translate(0.000000,128.000000) scale(0.100000,-0.100000)"
fill="#000000" stroke="none">
<path d="M0 640 l0 -640 640 0 640 0 0 640 0 640 -640 0 -640 0 0 -640z m473
274 c25 -8 66 -33 91 -55 202 -178 75 -514 -194 -512 -88 0 -157 31 -214 94
-99 110 -103 279 -9 389 75 88 212 123 326 84z m399 -111 l3 -127 95 127 94
127 53 0 c29 0 53 -3 53 -7 0 -4 -39 -58 -87 -122 -49 -63 -91 -120 -96 -127
-4 -8 31 -70 93 -166 l101 -153 -47 -3 c-26 -2 -52 -1 -59 2 -7 2 -55 71 -106
152 l-94 147 -3 -151 -3 -152 -44 0 -45 0 0 290 0 290 45 0 44 0 3 -127z"/>
<path d="M280 813 c-44 -23 -60 -39 -83 -83 -25 -47 -28 -63 -23 -109 13 -137
156 -219 281 -162 146 66 152 281 11 354 -64 33 -122 33 -186 0z"/>
</g>
</svg>
